<svg aria-roledescription="flowchart-v2" role="graphics-document document" viewBox="-8 -8 469.5 496" style="max-width: 469.5px;" xmlns="http://www.w3.org/2000/svg" width="469.5" id="svg" height="496"><style>#svg{font-family:"trebuchet ms",verdana,arial,sans-serif;font-size:16px;fill:#333;}#svg .error-icon{fill:#552222;}#svg .error-text{fill:#552222;stroke:#552222;}#svg .edge-thickness-normal{stroke-width:2px;}#svg .edge-thickness-thick{stroke-width:3.5px;}#svg .edge-pattern-solid{stroke-dasharray:0;}#svg .edge-pattern-dashed{stroke-dasharray:3;}#svg .edge-pattern-dotted{stroke-dasharray:2;}#svg .marker{fill:#333333;stroke:#333333;}#svg .marker.cross{stroke:#333333;}#svg svg{font-family:"trebuchet ms",verdana,arial,sans-serif;font-size:16px;}#svg .label{font-family:"trebuchet ms",verdana,arial,sans-serif;color:#333;}#svg .cluster-label text{fill:#333;}#svg .cluster-label span,#svg p{color:#333;}#svg .label text,#svg span,#svg p{fill:#333;color:#333;}#svg .node rect,#svg .node circle,#svg .node ellipse,#svg .node polygon,#svg .node path{fill:#ECECFF;stroke:#9370DB;stroke-width:1px;}#svg .flowchart-label text{text-anchor:middle;}#svg .node .katex path{fill:#000;stroke:#000;stroke-width:1px;}#svg .node .label{text-align:center;}#svg .node.clickable{cursor:pointer;}#svg .arrowheadPath{fill:#333333;}#svg .edgePath .path{stroke:#333333;stroke-width:2.0px;}#svg .flowchart-link{stroke:#333333;fill:none;}#svg .edgeLabel{background-color:#e8e8e8;text-align:center;}#svg .edgeLabel rect{opacity:0.5;background-color:#e8e8e8;fill:#e8e8e8;}#svg .labelBkg{background-color:rgba(232, 232, 232, 0.5);}#svg .cluster rect{fill:#ffffde;stroke:#aaaa33;stroke-width:1px;}#svg .cluster text{fill:#333;}#svg .cluster span,#svg p{color:#333;}#svg div.mermaidTooltip{position:absolute;text-align:center;max-width:200px;padding:2px;font-family:"trebuchet ms",verdana,arial,sans-serif;font-size:12px;background:hsl(80, 100%, 96.2745098039%);border:1px solid #aaaa33;border-radius:2px;pointer-events:none;z-index:100;}#svg .flowchartTitleText{text-anchor:middle;font-size:18px;fill:#333;}#svg .today{display:none;}#svg .label foreignObject{overflow:visible;}#svg :root{--mermaid-font-family:"trebuchet ms",verdana,arial,sans-serif;}</style><g><marker orient="auto" markerHeight="12" markerWidth="12" markerUnits="userSpaceOnUse" refY="5" refX="6" viewBox="0 0 10 10" class="marker flowchart" id="svg_flowchart-pointEnd"><path style="stroke-width: 1; stroke-dasharray: 1, 0;" class="arrowMarkerPath" d="M 0 0 L 10 5 L 0 10 z"></path></marker><marker orient="auto" markerHeight="12" markerWidth="12" markerUnits="userSpaceOnUse" refY="5" refX="4.5" viewBox="0 0 10 10" class="marker flowchart" id="svg_flowchart-pointStart"><path style="stroke-width: 1; stroke-dasharray: 1, 0;" class="arrowMarkerPath" d="M 0 5 L 10 10 L 10 0 z"></path></marker><marker orient="auto" markerHeight="11" markerWidth="11" markerUnits="userSpaceOnUse" refY="5" refX="11" viewBox="0 0 10 10" class="marker flowchart" id="svg_flowchart-circleEnd"><circle style="stroke-width: 1; stroke-dasharray: 1, 0;" class="arrowMarkerPath" r="5" cy="5" cx="5"></circle></marker><marker orient="auto" markerHeight="11" markerWidth="11" markerUnits="userSpaceOnUse" refY="5" refX="-1" viewBox="0 0 10 10" class="marker flowchart" id="svg_flowchart-circleStart"><circle style="stroke-width: 1; stroke-dasharray: 1, 0;" class="arrowMarkerPath" r="5" cy="5" cx="5"></circle></marker><marker orient="auto" markerHeight="11" markerWidth="11" markerUnits="userSpaceOnUse" refY="5.2" refX="12" viewBox="0 0 11 11" class="marker cross flowchart" id="svg_flowchart-crossEnd"><path style="stroke-width: 2; stroke-dasharray: 1, 0;" class="arrowMarkerPath" d="M 1,1 l 9,9 M 10,1 l -9,9"></path></marker><marker orient="auto" markerHeight="11" markerWidth="11" markerUnits="userSpaceOnUse" refY="5.2" refX="-1" viewBox="0 0 11 11" class="marker cross flowchart" id="svg_flowchart-crossStart"><path style="stroke-width: 2; stroke-dasharray: 1, 0;" class="arrowMarkerPath" d="M 1,1 l 9,9 M 10,1 l -9,9"></path></marker><g class="root"><g class="clusters"></g><g class="edgePaths"><path marker-end="url(#svg_flowchart-pointEnd)" style="fill:none;" class="edge-thickness-normal edge-pattern-solid flowchart-link LS-A LE-B" id="L-A-B-0" d="M195.5,36L195.5,40.167C195.5,44.333,195.5,52.667,195.5,60.117C195.5,67.567,195.5,74.133,195.5,77.417L195.5,80.7"></path><path marker-end="url(#svg_flowchart-pointEnd)" style="fill:none;" class="edge-thickness-normal edge-pattern-solid flowchart-link LS-B LE-C" id="L-B-C-0" d="M195.5,122L195.5,126.167C195.5,130.333,195.5,138.667,195.566,146.2C195.632,153.734,195.764,160.467,195.83,163.834L195.896,167.201"></path><path marker-end="url(#svg_flowchart-pointEnd)" style="fill:none;" class="edge-thickness-normal edge-pattern-solid flowchart-link LS-C LE-D" id="L-C-D-0" d="M159.348,250.848L138.123,262.79C116.899,274.732,74.449,298.616,53.225,315.591C32,332.567,32,342.633,32,347.667L32,352.7"></path><path marker-end="url(#svg_flowchart-pointEnd)" style="fill:none;" class="edge-thickness-normal edge-pattern-solid flowchart-link LS-C LE-E" id="L-C-E-0" d="M173.797,265.297L167.664,274.831C161.531,284.365,149.266,303.432,143.133,318C137,332.567,137,342.633,137,347.667L137,352.7"></path><path marker-end="url(#svg_flowchart-pointEnd)" style="fill:none;" class="edge-thickness-normal edge-pattern-solid flowchart-link LS-C LE-F" id="L-C-F-0" d="M221.575,261.925L229.646,272.021C237.716,282.117,253.858,302.308,261.929,317.438C270,332.567,270,342.633,270,347.667L270,352.7"></path><path marker-end="url(#svg_flowchart-pointEnd)" style="fill:none;" class="edge-thickness-normal edge-pattern-solid flowchart-link LS-C LE-G" id="L-C-G-0" d="M235.91,247.59L264.341,260.075C292.773,272.56,349.637,297.53,378.068,315.048C406.5,332.567,406.5,342.633,406.5,347.667L406.5,352.7"></path><path marker-end="url(#svg_flowchart-pointEnd)" style="fill:none;" class="edge-thickness-normal edge-pattern-solid flowchart-link LS-D LE-H" id="L-D-H-0" d="M32,394L32,398.167C32,402.333,32,410.667,41.357,418.665C50.714,426.664,69.428,434.328,78.785,438.16L88.142,441.991"></path><path marker-end="url(#svg_flowchart-pointEnd)" style="fill:none;" class="edge-thickness-normal edge-pattern-solid flowchart-link LS-H LE-C" id="L-H-C-0" d="M161.488,444L167.157,439.833C172.826,435.667,184.163,427.333,189.831,416C195.5,404.667,195.5,390.333,195.5,374.25C195.5,358.167,195.5,340.333,195.571,326.467C195.641,312.6,195.783,302.7,195.854,297.75L195.924,292.799"></path><path marker-end="url(#svg_flowchart-pointEnd)" style="fill:none;" class="edge-thickness-normal edge-pattern-solid flowchart-link LS-E LE-H" id="L-E-H-0" d="M137,394L137,398.167C137,402.333,137,410.667,137,418.117C137,425.567,137,432.133,137,435.417L137,438.7"></path><path marker-end="url(#svg_flowchart-pointEnd)" style="fill:none;" class="edge-thickness-normal edge-pattern-solid flowchart-link LS-F LE-I" id="L-F-I-0" d="M270,394L270,398.167C270,402.333,270,410.667,277.187,418.591C284.374,426.515,298.749,434.03,305.936,437.787L313.123,441.544"></path><path marker-end="url(#svg_flowchart-pointEnd)" style="fill:none;" class="edge-thickness-normal edge-pattern-solid flowchart-link LS-G LE-I" id="L-G-I-0" d="M406.5,394L406.5,398.167C406.5,402.333,406.5,410.667,401.935,418.451C397.371,426.236,388.242,433.472,383.677,437.09L379.113,440.708"></path></g><g class="edgeLabels"><g class="edgeLabel"><g transform="translate(0, 0)" class="label"><foreignObject height="0" width="0"><div style="display: inline-block; white-space: nowrap;" xmlns="http://www.w3.org/1999/xhtml"><span class="edgeLabel"></span></div></foreignObject></g></g><g class="edgeLabel"><g transform="translate(0, 0)" class="label"><foreignObject height="0" width="0"><div style="display: inline-block; white-space: nowrap;" xmlns="http://www.w3.org/1999/xhtml"><span class="edgeLabel"></span></div></foreignObject></g></g><g transform="translate(32, 322.5)" class="edgeLabel"><g transform="translate(-32, -10.5)" class="label"><foreignObject height="21" width="64"><div style="display: inline-block; white-space: nowrap;" xmlns="http://www.w3.org/1999/xhtml"><span class="edgeLabel">压缩文件</span></div></foreignObject></g></g><g transform="translate(137, 322.5)" class="edgeLabel"><g transform="translate(-32, -10.5)" class="label"><foreignObject height="21" width="64"><div style="display: inline-block; white-space: nowrap;" xmlns="http://www.w3.org/1999/xhtml"><span class="edgeLabel">存档文件</span></div></foreignObject></g></g><g transform="translate(270, 322.5)" class="edgeLabel"><g transform="translate(-30.5, -9.5)" class="label"><foreignObject height="19" width="61"><div style="display: inline-block; white-space: nowrap;" xmlns="http://www.w3.org/1999/xhtml"><span class="edgeLabel">uImage</span></div></foreignObject></g></g><g transform="translate(406.5, 322.5)" class="edgeLabel"><g transform="translate(-32, -10.5)" class="label"><foreignObject height="21" width="64"><div style="display: inline-block; white-space: nowrap;" xmlns="http://www.w3.org/1999/xhtml"><span class="edgeLabel">文件系统</span></div></foreignObject></g></g><g class="edgeLabel"><g transform="translate(0, 0)" class="label"><foreignObject height="0" width="0"><div style="display: inline-block; white-space: nowrap;" xmlns="http://www.w3.org/1999/xhtml"><span class="edgeLabel"></span></div></foreignObject></g></g><g class="edgeLabel"><g transform="translate(0, 0)" class="label"><foreignObject height="0" width="0"><div style="display: inline-block; white-space: nowrap;" xmlns="http://www.w3.org/1999/xhtml"><span class="edgeLabel"></span></div></foreignObject></g></g><g class="edgeLabel"><g transform="translate(0, 0)" class="label"><foreignObject height="0" width="0"><div style="display: inline-block; white-space: nowrap;" xmlns="http://www.w3.org/1999/xhtml"><span class="edgeLabel"></span></div></foreignObject></g></g><g class="edgeLabel"><g transform="translate(0, 0)" class="label"><foreignObject height="0" width="0"><div style="display: inline-block; white-space: nowrap;" xmlns="http://www.w3.org/1999/xhtml"><span class="edgeLabel"></span></div></foreignObject></g></g><g class="edgeLabel"><g transform="translate(0, 0)" class="label"><foreignObject height="0" width="0"><div style="display: inline-block; white-space: nowrap;" xmlns="http://www.w3.org/1999/xhtml"><span class="edgeLabel"></span></div></foreignObject></g></g></g><g class="nodes"><g transform="translate(195.5, 18)" data-id="A" data-node="true" id="flowchart-A-0" class="node default default flowchart-label"><rect height="36" width="111" y="-18" x="-55.5" ry="0" rx="0" style="" class="basic label-container"></rect><g transform="translate(-48, -10.5)" style="" class="label"><rect></rect><foreignObject height="21" width="96"><div style="display: inline-block; white-space: nowrap;" xmlns="http://www.w3.org/1999/xhtml"><span class="nodeLabel">输入固件文件</span></div></foreignObject></g></g><g transform="translate(195.5, 104)" data-id="B" data-node="true" id="flowchart-B-1" class="node default default flowchart-label"><rect height="36" width="111" y="-18" x="-55.5" ry="0" rx="0" style="" class="basic label-container"></rect><g transform="translate(-48, -10.5)" style="" class="label"><rect></rect><foreignObject height="21" width="96"><div style="display: inline-block; white-space: nowrap;" xmlns="http://www.w3.org/1999/xhtml"><span class="nodeLabel">文件类型检查</span></div></foreignObject></g></g><g transform="translate(195.5, 229.5)" data-id="C" data-node="true" id="flowchart-C-3" class="node default default flowchart-label"><polygon style="" transform="translate(-57.5,57.5)" class="label-container" points="57.5,0 115,-57.5 57.5,-115 0,-57.5"></polygon><g transform="translate(-32, -10.5)" style="" class="label"><rect></rect><foreignObject height="21" width="64"><div style="display: inline-block; white-space: nowrap;" xmlns="http://www.w3.org/1999/xhtml"><span class="nodeLabel">类型判断</span></div></foreignObject></g></g><g transform="translate(32, 376)" data-id="D" data-node="true" id="flowchart-D-5" class="node default default flowchart-label"><rect height="36" width="63" y="-18" x="-31.5" ry="0" rx="0" style="" class="basic label-container"></rect><g transform="translate(-24, -10.5)" style="" class="label"><rect></rect><foreignObject height="21" width="48"><div style="display: inline-block; white-space: nowrap;" xmlns="http://www.w3.org/1999/xhtml"><span class="nodeLabel">解压缩</span></div></foreignObject></g></g><g transform="translate(137, 376)" data-id="E" data-node="true" id="flowchart-E-7" class="node default default flowchart-label"><rect height="36" width="47" y="-18" x="-23.5" ry="0" rx="0" style="" class="basic label-container"></rect><g transform="translate(-16, -10.5)" style="" class="label"><rect></rect><foreignObject height="21" width="32"><div style="display: inline-block; white-space: nowrap;" xmlns="http://www.w3.org/1999/xhtml"><span class="nodeLabel">解包</span></div></foreignObject></g></g><g transform="translate(270, 376)" data-id="F" data-node="true" id="flowchart-F-9" class="node default default flowchart-label"><rect height="36" width="79" y="-18" x="-39.5" ry="0" rx="0" style="" class="basic label-container"></rect><g transform="translate(-32, -10.5)" style="" class="label"><rect></rect><foreignObject height="21" width="64"><div style="display: inline-block; white-space: nowrap;" xmlns="http://www.w3.org/1999/xhtml"><span class="nodeLabel">提取内核</span></div></foreignObject></g></g><g transform="translate(406.5, 376)" data-id="G" data-node="true" id="flowchart-G-11" class="node default default flowchart-label"><rect height="36" width="94" y="-18" x="-47" ry="0" rx="0" style="" class="basic label-container"></rect><g transform="translate(-39.5, -10.5)" style="" class="label"><rect></rect><foreignObject height="21" width="79"><div style="display: inline-block; white-space: nowrap;" xmlns="http://www.w3.org/1999/xhtml"><span class="nodeLabel">提取rootfs</span></div></foreignObject></g></g><g transform="translate(137, 462)" data-id="H" data-node="true" id="flowchart-H-13" class="node default default flowchart-label"><rect height="36" width="143" y="-18" x="-71.5" ry="0" rx="0" style="" class="basic label-container"></rect><g transform="translate(-64, -10.5)" style="" class="label"><rect></rect><foreignObject height="21" width="128"><div style="display: inline-block; white-space: nowrap;" xmlns="http://www.w3.org/1999/xhtml"><span class="nodeLabel">递归处理解压内容</span></div></foreignObject></g></g><g transform="translate(352.25, 462)" data-id="I" data-node="true" id="flowchart-I-19" class="node default default flowchart-label"><rect height="36" width="79" y="-18" x="-39.5" ry="0" rx="0" style="" class="basic label-container"></rect><g transform="translate(-32, -10.5)" style="" class="label"><rect></rect><foreignObject height="21" width="64"><div style="display: inline-block; white-space: nowrap;" xmlns="http://www.w3.org/1999/xhtml"><span class="nodeLabel">保存结果</span></div></foreignObject></g></g></g></g></g></svg>